<?xml version="1.0" standalone="no"?><!DOCTYPE svg PUBLIC "-//W3C//DTD SVG 1.1//EN" "http://www.w3.org/Graphics/SVG/1.1/DTD/svg11.dtd"><svg class="icon" width="200px" height="200.00px" viewBox="0 0 1024 1024" version="1.1" xmlns="http://www.w3.org/2000/svg"><path d="M0 0m136.533333 0l750.933334 0q136.533333 0 136.533333 136.533333l0 750.933334q0 136.533333-136.533333 136.533333l-750.933334 0q-136.533333 0-136.533333-136.533333l0-750.933334q0-136.533333 136.533333-136.533333Z" fill="#30384F" /><path d="M458.533547 324.07552l-80.554667-10.704213-36.0448-66.60096-36.099413 66.60096-80.554667 10.704213 58.272427 51.882667-13.666987 73.23648 72.04864-34.57024 72.04864 34.57024-13.735253-73.23648z" fill="#59554A" /><path d="M799.061333 782.336l-66.628266 39.1168c-12.588373 7.386453-22.89664-0.300373-22.89664-17.08032v-78.506667a51.514027 51.514027 0 0 1 23.442773-42.51648l65.536-33.50528c12.9024-6.608213 23.442773 1.733973 23.442773 18.51392v70.014294a55.66464 55.66464 0 0 1-22.89664 43.963733z m-2.921813-144.861867L726.357333 674.474667a56.661333 56.661333 0 0 1-47.22688 0l-72.21248-38.229334a13.312 13.312 0 0 1-0.2048-25.613653l67.447467-37.860693a54.613333 54.613333 0 0 1 47.02208-0.546134l74.943147 40.05888a12.970667 12.970667 0 0 1 0.013653 25.1904z m-116.381013-117.650773l-26.815147-30.037333-39.908693 5.010773 20.261546-34.679467-17.134933-36.427093 39.335253 8.56064 29.354667-27.538773 4.027733 40.045226 35.26656 19.401387-36.864 16.192853z m21.722453-167.44448L669.682347 327.68l-38.393174 12.151467 13.653334-37.84704-23.415467-32.768 40.22272 1.365333 23.906987-32.385707 11.18208 38.66624 38.229333 12.724907-33.286827 22.555307zM353.621333 790.801067a39.840427 39.840427 0 0 1-55.05024 10.390186l-17.312426-11.851093a39.594667 39.594667 0 0 1-10.390187-54.872747l213.947733-312.456533a39.826773 39.826773 0 0 1 55.05024-10.390187l17.353387 11.83744a39.594667 39.594667 0 0 1 10.36288 54.8864z m187.419307-343.927467l-14.158507-9.557333-3.140266-2.184534a11.004587 11.004587 0 0 0-15.428267 2.90816L480.13312 479.232l35.607893 24.234667 28.166827-41.178454a11.18208 11.18208 0 0 0-2.894507-15.428266z m9.038507-123.767467l-19.8656-3.249493-13.953707 14.513493-3.044693-19.879253-18.077014-8.833707 17.98144-9.05216 2.730667-19.879253 14.158507 14.29504 19.810986-3.536213-9.216 17.885866z m-108.270934 105.608534l-100.88448-19.797334-73.5232 71.857494-12.288-102.004054-91.067733-47.7184 93.252267-43.29472 17.271466-101.321386 69.986987 75.28448 101.730987-14.90944-50.025814 89.770666z m-22.28224-164.345174l-80.24064 12.77952-53.602986-53.507413-15.48288 74.1376-74.1376 33.286827 70.683306 33.041066 7.7824 74.069334 59.159894-53.73952 78.92992 12.520106-34.133334-66.259626zM604.678827 649.6256l65.194666 32.058027a50.681173 50.681173 0 0 1 23.606614 42.420906v79.694507c0 16.930133-10.40384 24.94464-23.087787 17.749333l-66.218667-37.382826a54.6816 54.6816 0 0 1-23.087786-43.854507V668.8768c-0.013653-16.971093 10.622293-25.627307 23.59296-19.2512zM791.893333 955.733333v-27.306666h109.226667v-13.653334h-13.653333v-13.653333h-13.653334v-13.653333h-13.653333v-13.653334h-13.653333v-13.653333h-13.653334v-13.653333h-13.653333v-13.653334h-13.653333v-13.653333h-13.653334v-13.653333h13.653334v-13.653334h13.653333v13.653334h13.653333v13.653333h13.653334v13.653333h13.653333v13.653334h13.653333v13.653333h13.653334v13.653333h13.653333v13.653334h13.653333v13.653333h13.653334v-109.226667h27.306666v163.84H791.893333z m70.314667-68.266666zM860.16 887.466667z" fill="#FFC738" /></svg>