<?xml version="1.0" standalone="no"?><!DOCTYPE svg PUBLIC "-//W3C//DTD SVG 1.1//EN" "http://www.w3.org/Graphics/SVG/1.1/DTD/svg11.dtd"><svg t="1643780029282" class="icon" viewBox="0 0 1024 1024" version="1.1" xmlns="http://www.w3.org/2000/svg" p-id="2261" xmlns:xlink="http://www.w3.org/1999/xlink" width="200" height="200"><defs><style type="text/css"></style></defs><path d="M85.333 468.95l-2.218-0.043-1.92-0.128a42.71 42.71 0 0 1-3.371-0.47l-1.75-0.341a26.368 26.368 0 0 1-2.474-0.64l-2.475-0.768a42.88 42.88 0 0 1-16.896-11.05l3.371 3.2a55.168 55.168 0 0 1-3.243-3.073l-0.426-0.469a44.373 44.373 0 0 1-7.51-11.35l-1.066-2.517-0.768-2.176-0.683-2.432a28.288 28.288 0 0 1-0.555-2.602l-0.341-2.134a49.45 49.45 0 0 1-0.341-5.674l0.085 3.029a51.285 51.285 0 0 1-0.085-2.56v-256.47a42.667 42.667 0 0 1 85.333 0v157.355l125.141-117.589a426.667 426.667 0 0 1 496.47-77.525l11.392 6.101a426.71 426.71 0 0 1-181.888 799.403 426.667 426.667 0 0 1-426.923-284.203 42.624 42.624 0 1 1 80.47-28.33 341.29 341.29 0 0 0 654.762-37.718 341.333 341.333 0 0 0-167.68-374.485 341.717 341.717 0 0 0-407.21 58.069l-119.51 112.213 148.31 0.043a42.667 42.667 0 0 1 42.367 37.675l0.299 4.992a42.667 42.667 0 0 1-42.667 42.666h-256z" p-id="2262"></path></svg>