<?xml version="1.0" standalone="no"?><!DOCTYPE svg PUBLIC "-//W3C//DTD SVG 1.1//EN" "http://www.w3.org/Graphics/SVG/1.1/DTD/svg11.dtd"><svg class="icon" width="200px" height="200.00px" viewBox="0 0 1024 1024" version="1.1" xmlns="http://www.w3.org/2000/svg"><path d="M985.742 749.896c0 130.902-106.178 237.004-237.13 237.004H274.336c-130.994 0-237.132-106.102-237.132-237.004V276.018c0-130.902 106.138-236.966 237.132-236.966h474.274c130.954 0 237.13 106.064 237.13 236.966v473.878z" fill="#9CC464" /><path d="M215.052 723.4l239.228 34.596v-228.66H215.052zM486.97 762.74l320.924 46.436v-279.84H486.97zM486.97 496.668h320.924V216.778l-320.924 46.434zM454.28 267.958l-239.228 34.634v194.076H454.28z" fill="#FFFFFF" /><path d="M215.052 723.4l239.228 34.596v-228.66H215.052zM486.97 762.74l320.924 46.436v-279.84H486.97zM486.97 496.668h320.924V216.778l-320.924 46.434zM454.28 267.958l-239.228 34.634v194.076H454.28z" fill="#FFFFFF" /><path d="M454.28 529.336v228.66L215.052 723.4v-194.064H454.28m0-19.754H215.052c-10.91 0-19.754 8.844-19.754 19.754V723.4a19.754 19.754 0 0 0 16.926 19.55l239.228 34.596a19.75 19.75 0 0 0 22.58-19.55v-228.66c0.002-10.91-8.842-19.754-19.752-19.754z m353.614 19.754v279.84L486.97 762.74V529.336h320.924m0-19.754H486.97c-10.91 0-19.754 8.844-19.754 19.754V762.74a19.754 19.754 0 0 0 16.924 19.55l320.926 46.436a19.768 19.768 0 0 0 15.758-4.614 19.758 19.758 0 0 0 6.824-14.936v-279.84c0-10.91-8.844-19.754-19.754-19.754z m0-292.804v279.89H486.97V263.212l320.924-46.434m0-19.754c-0.94 0-1.884 0.068-2.828 0.204L484.14 243.662a19.754 19.754 0 0 0-16.924 19.55v233.456c0 10.91 8.844 19.754 19.754 19.754h320.924c10.91 0 19.754-8.844 19.754-19.754V216.778a19.754 19.754 0 0 0-19.754-19.754zM454.28 267.958v228.71H215.052v-194.076l239.228-34.634m0.002-19.754c-0.942 0-1.888 0.068-2.832 0.204l-239.228 34.634a19.754 19.754 0 0 0-16.924 19.55v194.076c0 10.91 8.844 19.754 19.754 19.754H454.28c10.91 0 19.754-8.844 19.754-19.754V267.958a19.75 19.75 0 0 0-19.752-19.754z m273.796 707.918H294.83c-124.896 0-226.506-101.636-226.506-226.566V296.358c0-124.908 101.61-226.526 226.506-226.526h433.248c124.918 0 226.544 101.62 226.544 226.526v433.198c0.002 124.928-101.626 226.566-226.544 226.566zM294.83 89.636c-113.976 0-206.702 92.734-206.702 206.72v433.198c0 114.008 92.726 206.762 206.702 206.762h433.248c113.996 0 206.74-92.754 206.74-206.762V296.358c0-113.986-92.744-206.72-206.74-206.72H294.83z" fill="#75934B" /></svg>